<?xml version="1.0" encoding="UTF-8"?><svg id="Layer_1" xmlns="http://www.w3.org/2000/svg" viewBox="0 0 981.23 1533.85"><defs><style>.cls-1{fill:#ff6b00;}</style></defs><path class="cls-1" d="M946.56,791.27h-101.5v-34.1c-.24-236.2-1.05-472.41-.1-708.56,.14-34.53-16.98-47.47-47.23-47.85-71.35-.95-142.69-1.24-213.99,.52-23.88,.57-47.09,6.99-62.83,30.3-18.07,26.68-39.62,50.94-59.55,76.29-40.48,51.46-81.24,102.64-121.15,154.49-56.22,72.92-111.97,146.21-167.57,219.6-46.47,61.41-92.51,123.1-138.51,184.83-9.18,12.32-21.78,24.4-24.97,38.38-5.95,26.35-8.09,54.03-8.51,81.19-1.09,70.54-.52,141.08-.29,211.61,.1,21.31,12.37,34.15,33.15,34.2,105.4,.24,210.8,.52,316.21-.67,8.89-.1,21.5-9.32,25.73-17.65,18.45-36.34,34.44-73.91,51.27-111.06,31.34,27.78,180.6,268.26,186.74,301.75-23.64-2.9-46.9-5.71-73.25-8.94,0,56.41,2.33,107.92-.76,159.05-2.28,37.05,12.65,63.07,38.19,86.09,28.02,25.26,54.98,51.89,84.52,75.25,11.94,9.42,29.25,15.51,44.52,16.51,36.29,2.38,72.92-.48,109.3,1.24,22.74,1.05,29.68-5.99,29.54-29.21-1-145.78-.52-291.66-.48-437.49,0-32.63,2.14-34.67,35.48-34.72,18.69-.05,37.39,0,58.41,0,0-51.08-.52-98.7,.29-146.12,.05-1.52,.05-3,.09-4.52,.29-14.46,4.85-28.87,7.99-46.28,6.52,5.18,8.47,6.47,10.13,8.09,1.62,1.66,3.19,3.47,4.38,5.47,6.42,10.7,12.79,21.31,19.41,31.68-18.55-30.68-28.92-64.07-34.67-89.37Zm-405.67-321.77c-2.05,97.32-.67,194.68-.67,292v27.02H219.73c113.68-148.88,225.74-295.61,334.57-438.16-4.42,37.34-12.56,78.15-13.41,119.15Z"/></svg>