<?xml version="1.0" encoding="UTF-8"?><svg id="Layer_1" xmlns="http://www.w3.org/2000/svg" viewBox="0 0 1566.68 324.46"><defs><style>.cls-1{fill:#ff6b00;}.cls-2{fill:#f9f9f9;}</style></defs><g><path class="cls-2" d="M902.38,121.43c-.2-4.22-1.09-9.76-6.07-10.83-6.85-1.46-14.01-1.79-21.04-1.9-5.2-.09-10.4,1.26-15.61,1.43-7.48,.24-14.96-.01-22.49-.04-2.92,12.52-3.08,24.15,.27,36.74,7.81,.54,15.62,1.09,23.38,1.63,2.81,11.52-2.3,23.97-14.57,28.71-7.07,2.74-14.2,3.32-20.84-.36-10.55-5.85-15.11-15.33-15.05-27.31,.11-20.67-.07-41.33,.11-61.99,.04-4.53,.61-9.17,1.74-13.55,1.76-6.83,6.24-12.33,12.75-14.54,6.88-2.34,14.4-3.5,21.62-.28,7.64,3.39,14.48,7.32,16.85,16.5,.79,3.07,3.73,6.32,6.57,8,8.81,5.24,17.5,2.63,25.61-2.16,4.07-2.41,6.46-9.24,4.84-13.03-2.47-5.75-4.84-11.62-8.05-16.97-14.92-24.87-42.81-37.23-72.04-29.89-17.23,4.32-30.89,14.27-40.35,29.48-7.64,12.28-8.78,26.16-8.97,40.13-.19,14.49-.04,28.99-.04,43.49,0,7.5-.18,15,.08,22.49,.01,.18,.02,.35,.03,.53,.01,.17,.02,.34,.04,.5,.01,.08,.02,.17,.03,.26,.02,.2,.05,.44,.08,.7,.01,.14,.03,.28,.05,.43,0,.02,.01,.05,.01,.08,.37,2.36,1.02,4.65,1.4,6.68h-.21c1.21,5.32,3.39,12.34,7.29,18.79,.67,1.03,1.34,2.06,2.02,3.07,.13,.19,.26,.37,.38,.55s.25,.37,.38,.55c3.7,5.32,7.89,10.29,13.32,14.61,12.08,9.62,25.78,13.23,40.18,14.51,11.84,1.04,22.81-3.49,33.28-9.36,11.23-6.3,18.78-15.53,25.67-26.09,6.14-9.43,5.92-19.97,7.22-30.11,1.31-10.33,.62-20.97,.13-31.45Z"/><path class="cls-1" d="M772.51,166.36h-21.34v-7.17c-.05-49.66-.22-99.32-.02-148.97,.03-7.26-3.57-9.98-9.93-10.06-15-.2-30-.26-44.99,.11-5.02,.12-9.9,1.47-13.21,6.37-3.8,5.61-8.33,10.71-12.52,16.04-8.51,10.82-17.08,21.58-25.47,32.48-11.82,15.33-23.54,30.74-35.23,46.17-9.77,12.91-19.45,25.88-29.12,38.86-1.93,2.59-4.58,5.13-5.25,8.07-1.25,5.54-1.7,11.36-1.79,17.07-.23,14.83-.11,29.66-.06,44.49,.02,4.48,2.6,7.18,6.97,7.19,22.16,.05,44.32,.11,66.48-.14,1.87-.02,4.52-1.96,5.41-3.71,3.88-7.64,7.24-15.54,10.78-23.35,6.59,5.84,37.97,56.4,39.26,63.44-4.97-.61-9.86-1.2-15.4-1.88,0,11.86,.49,22.69-.16,33.44-.48,7.79,2.66,13.26,8.03,18.1,5.89,5.31,11.56,10.91,17.77,15.82,2.51,1.98,6.15,3.26,9.36,3.47,7.63,.5,15.33-.1,22.98,.26,4.78,.22,6.24-1.26,6.21-6.14-.21-30.65-.11-61.32-.1-91.98,0-6.86,.45-7.29,7.46-7.3,3.93-.01,7.86,0,12.28,0,0-10.74-.11-20.75,.06-30.72,.01-.32,.01-.63,.02-.95,.06-3.04,1.02-6.07,1.68-9.73,1.37,1.09,1.78,1.36,2.13,1.7,.34,.35,.67,.73,.92,1.15,1.35,2.25,2.69,4.48,4.08,6.66-3.9-6.45-6.08-13.47-7.29-18.79Zm-85.29-67.65c-.43,20.46-.14,40.93-.14,61.39v5.68h-67.38c23.9-31.3,47.46-62.15,70.34-92.12-.93,7.85-2.64,16.43-2.82,25.05Z"/><path class="cls-2" d="M1109.87,123.86c0,1.97,0,3.94,0,5.92,0,23.99-.11,47.99,.06,71.98,.06,8.72-6.63,15.81-15.36,15.25-6.8-.43-13.7,1.33-20.26-2.89-3.86-2.49-5.57-4.85-5.56-9.38,.11-53.65,.03-107.31,.15-160.96,.01-4.88,.5-9.93,1.84-14.59,1.56-5.44,6.41-8.25,11.67-9.04,12.11-1.83,23.36,.76,29.57,14.4,11.54,25.36,23.89,50.36,35.91,75.51,3.4,7.11,6.81,14.21,10.85,22.66,1.71-2.15,3.2-3.45,3.99-5.09,8.3-17.13,16.46-34.33,24.73-51.48,6.86-14.23,13.7-28.46,20.76-42.59,7.36-14.75,22.55-18.92,36.37-9.96,4.17,2.71,6.73,6.84,6.74,12.01,.05,31.66,.23,63.32-.04,94.98-.21,24.71-1.02,49.41-1.56,74.12-.15,6.73-5.48,12.18-12.21,12.31-4.16,.09-8.33,.02-12.5,.02-8.56,0-14.68-6.04-14.69-14.63-.03-24.83-.01-49.65-.01-74.48,0-1.96,0-3.92,0-6.29-6.06,.67-6.08,5.83-7.8,9.01-2.52,4.67-3.69,10.04-5.81,14.95-6.88,15.96-14.09,31.79-20.79,47.82-1.76,4.21-5.07,5.1-8.56,6.46-10.14,3.96-20.1,.51-24.44-9.17-6.77-15.11-13.11-30.41-19.71-45.6-2.66-6.12-5.43-12.2-8.33-18.21-.73-1.5-2.18-2.66-3.3-3.97-.57,.31-1.14,.62-1.72,.93Z"/><path class="cls-2" d="M223.09,138.06c-8.97,0-17.26,0-25.56,0-2.33,0-4.71,.26-6.99-.11-8.32-1.32-8.67-1.09-8.67,7.56,0,19.33-.31,38.66,.16,57.98,.17,7.06-6.63,14.41-13.67,13.59-6.34-.74-12.9-.33-19.02-1.84-4.59-1.13-7.01-5.09-6.98-10.65,.22-55.65,.17-111.3,.26-166.95,.02-12.51,5.07-17.51,17.57-17.82,2.5-.06,5.05-.27,7.49,.13,9.56,1.54,14.35,5.18,14.23,15.09-.24,19.32,.11,38.66-.15,57.98-.06,4.74,1.45,5.9,5.93,5.75,9.49-.31,18.99-.09,28.49-.1,7.2,0,7.04,0,6.95-6.96-.14-10.83-.23-21.66,.02-32.49,.21-9.3,.81-18.59,1.45-27.88,.41-5.91,4.92-10.22,12.77-11.08,5-.55,10.35-.15,15.25,1.03,7.42,1.78,10.72,6.59,10.86,14.12,.27,13.81,.75,27.63,.58,41.44-.23,18.04-1.49,36.07-1.44,54.11,.06,23.04,.98,46.07,1.51,69.11,.24,10.31-7.34,18.36-17.12,17.05-3.44-.46-6.99,.01-10.49-.1-5.53-.18-11.54-5-11.73-9.99-.71-18.18-1.18-36.38-1.69-54.57-.12-4.48-.02-8.96-.02-14.39Z"/><path class="cls-2" d="M415.52,91.33c0-12.51-2.49-24.42-8.63-35.42-12.89-23.05-32.47-35.09-58.94-36.27-16.27-.72-30.71,4.23-43.14,14.11-15.33,12.18-25.44,27.73-25.75,48.15-.19,12.16-.03,24.32-.03,36.48s.37,23.34-.12,34.98c-.4,9.52,2.63,17.97,6.31,26.35,4.97,11.36,13.56,19.55,23.39,26.72,11.23,8.18,24.16,11.71,37.6,11.95,7.73,.14,15.67-2.44,23.27-4.66,16.11-4.71,27.45-15.83,36.04-29.62,7.68-12.35,10.14-26.31,10.03-40.79-.13-17.33-.03-34.66-.03-51.98Zm-46.75,77.47c-3.64,3.96-9.19,6.46-14.28,8.71-17.48,7.75-39.37-12.56-37.87-28.9,.91-9.91,.17-19.97,.17-29.97,0-10.66-.44-21.35,.15-31.97,.42-7.51,2.17-15.18,8.35-20.31,9.21-7.66,19.02-11.17,31.52-6.44,12.63,4.77,19.46,16.3,19.34,28.69-.17,18.82-.2,37.65,.03,56.47,.11,8.84-1.5,17.31-7.41,23.72Z"/><path class="cls-2" d="M1062.01,202.3c-3.75-12.54-7.81-24.99-11.9-37.42-2.98-9.08-6.3-18.04-9.3-27.11-5.19-15.66-10.11-31.42-15.42-47.04-5.74-16.87-12.31-33.46-17.57-50.47-5.41-17.49-10.62-20.75-25.83-20.78-8.76-.93-16.83,2.05-21.08,11.97-1.7,3.97-3.19,8.04-4.57,12.13-10.29,30.47-20.64,60.93-30.74,91.46-4.16,12.59-7.62,25.41-11.66,38.04-2.86,8.93-6.49,17.62-9.09,26.61-1.14,3.91-2.51,9.07,1.69,11.99,3.61,2.51,8.05,4.4,12.37,5.15,5.02,.87,10.31,.44,15.45,.09,2.09-.14,4.43-1.15,6.05-2.49,5.57-4.58,5.92-11.75,8.09-17.95,1.35-3.86,2.77-5.94,7.41-5.87,17.99,.29,35.98,.18,53.97,.07,3.42-.02,5.55,.87,6.74,4.36,1.72,5.06,3.78,10.02,6,14.89,2.11,4.62,5.35,7.07,11.07,7.38,5.13,.29,10.13-.16,15.19-.31,6.82-.21,14.83-8.99,13.13-14.7Zm-100.09-51.38c6.57-22.12,13-43.77,19.42-65.42,.57,.07,1.14,.13,1.71,.19,6.76,21.51,13.53,43.02,20.51,65.23h-41.64Z"/><path class="cls-2" d="M551.7,63.57c-7.83-23.88-25.15-38.47-49.54-41.51-19.16-2.39-38.84-.78-58.28-.57-6.8,.07-11.45,5.13-11.74,11.89-.67,16.19-1.62,32.4-1.62,48.6-.01,16.87,1.2,33.73,1.46,50.6,.28,17.5,.16,35,.02,52.5-.05,5.91-1.18,11.85-.83,17.72,.19,3.27,1.74,6.96,3.83,9.53,3.89,4.79,20.17,6.54,26.64,3.9,7.91-3.21,9.52-10.05,9.69-17.17,.37-15.63,.12-31.28,.12-47.82,5.16,0,9.67,.37,14.09-.08,8.1-.81,16.44-1.12,24.15-3.4,15.09-4.46,27.29-13.58,35.54-27.16,10.9-17.92,12.95-37.25,6.47-57.03Zm-38.45,35.53c-3.66,6.74-9.16,11.08-16.15,12.5-7.49,1.52-15.32,1.45-23.01,1.79-2.67,.11-3.36-1-3.1-4.37,.67-8.73,.05-17.56,.03-26.35-.01-2.19,.45-4.39,.39-6.57-.14-5.48-.45-10.96-.72-17.01,8.79,0,17.28-.3,25.74,.08,10.07,.44,18.91,9.71,19.54,19.78,.44,6.9,.83,13.6-2.72,20.15Z"/><path class="cls-2" d="M1435.55,19.61c23.31,.69,41.59,10.76,55.11,29.65,4,5.59,3.48,13.69-1.29,18.72-5.6,5.91-12.58,8.84-20.7,7.23-2.49-.49-5.05-2.5-6.81-4.49-7.79-8.77-16.82-14.28-29.1-13.4-10.67,.76-19.08,10.4-17.05,20.58,1.35,6.78,6.73,10.52,12.35,13.43,10.75,5.56,21.81,10.52,32.57,16.07,12.7,6.54,24.29,14.45,31.34,27.53,12.16,22.54,6.34,53.43-14.78,69.44-12.77,9.68-26.76,13.95-42.18,13.54-13.85-.37-26.83-4.28-38.4-12.62-9.9-7.14-16.96-16.01-20.92-27.57-2.48-7.24,.34-16.04,6.96-19.71,11.73-6.51,22.36-3.41,29.68,8.98,4.48,7.59,11.88,10.56,19.67,12.14,7.61,1.55,14.92-.5,21.34-5.22,3.53-2.6,6.41-12.79,5.03-17.22-2.04-6.57-6.48-10.71-12.46-13.65-11.97-5.89-23.97-11.74-35.77-17.96-13.04-6.88-23.98-16.25-29.69-30.17-7.37-17.96-4.89-35.28,6.35-50.87,11.84-16.42,28.21-24.73,48.75-24.42Z"/><path class="cls-2" d="M62.88,19.67c18.04,.38,33.8,6.64,46.3,19.64,4.32,4.49,8.13,10.42,9.73,16.35,2.58,9.56-3.07,15.22-14.31,19.79-3.96,1.61-8.08,2.9-12.14,.09-.95-.66-2.02-1.27-2.73-2.15-7.98-9.96-17.48-17.21-31.04-15.85-10.06,1.01-21.32,13.61-14.87,23.14,2.59,3.82,6.26,7.46,10.28,9.67,11.98,6.57,24.52,12.11,36.54,18.62,5.11,2.77,9.3,7.22,14.19,10.47,8.47,5.63,12.63,14.21,16.46,23.05,1.21,2.8,2.54,5.77,2.76,8.74,1.04,14.42,.21,28.32-8.44,41.04-7.92,11.65-18.93,18.3-31.66,22.71-3.94,1.36-8.34,1.35-12.51,2.07-2.55,.44-5.19,1.85-7.58,1.49-8.31-1.26-16.89-2.12-24.71-4.95-14.67-5.32-26.68-14.67-34.25-28.65-2.39-4.41-3.47-9.56-4.82-14.47-.34-1.25,.41-2.91,.95-4.28,4.45-11.46,20.66-15.25,29.48-6.86,5.38,5.12,10.36,10.69,15.97,15.53,8.19,7.07,23.64,5.88,31.47,.72,11.4-7.51,10.51-23.11-2.15-30.96-8.29-5.14-17.28-9.17-26.01-13.58-13.07-6.6-26.02-13.27-35.38-25.13C2.46,90.79,1.24,74,6.91,56.4,13.98,34.44,39.42,19.01,62.88,19.67Z"/><path class="cls-2" d="M1305.88,59.08v39.59c2.88,0,5.62,0,8.37,0,7.16,0,14.39,.59,21.47-.15,8.7-.91,16.33,5.11,19.12,14.42,2.88,9.62-1.7,19.7-10.97,23.94-1.71,.78-3.77,1.12-5.67,1.13-10.63,.11-21.25,.05-32.2,.05v39.34c1.87,.09,3.64,.23,5.41,.24,11.83,.02,23.67-.28,35.48,.15,5.23,.19,11.05,.5,14.56,5.5,7.53,10.72,7.42,22.29-3.13,31.01-2.27,1.87-6.07,2.6-9.18,2.63-22.82,.21-45.64,.3-68.46,.02-9.08-.11-14.55-4.68-14.51-14.59,.22-55.14,.25-110.28-.02-165.41-.05-10.77,7.29-16.34,17.93-16.12,17.95,.37,35.92-.33,53.87,.12,8.56,.22,18.39-1.89,23.8,8.35,3.45,6.53,3.82,13.31,.64,19.55-3.33,6.55-9.43,10.15-17.03,10.21-12.96,.11-25.93,.03-39.45,.03Z"/><path class="cls-2" d="M249.75,297.67c-4.24,0-7.28,.38-10.16-.14-1.74-.32-3.21-2.06-4.81-3.16,1.65-1.06,3.17-2.56,4.97-3.08,3.1-.88,6.36-1.25,9.57-1.65,7.09-.88,12.54,.54,11.48,9.53-1.1,9.28-5.02,16.93-13.68,21.5-16.45,8.7-40.73,1.27-45.93-18.54-3.51-13.38,2.67-32.69,15.98-37.72,12.39-4.67,27.02-3.17,35.27,6.17,1.33,1.51,2.49,5.48,1.85,6-2.45,1.98-5.07,4.54-9.03,1.47-10.12-7.85-22.59-8.27-29.76,.19-4.47,5.27-6.04,11.43-4.53,18.93,1.58,7.8,5.25,13.45,12.15,16.02,10.52,3.91,19.95,2.69,25.22-8.72,.83-1.81,.85-3.99,1.41-6.81Z"/><path class="cls-2" d="M914.69,317.53c-3.78-5.87-7.74-11.67-12.12-17.1-2.59-3.21-1.25-4.52,1.46-6.04,7.31-4.08,10.64-11.79,8.29-19.55-2.08-6.88-9.14-12.28-15.3-11.76-3.47,.29-7.11-.6-10.57-1.41-6.14-1.44-10.3,1.5-10.12,7.78,.46,16.34,1.11,32.67,1.59,49,.09,3.1,.17,5.64,4.38,5.53,4.11-.09,5.54-2.06,5.47-5.94-.13-6.46-.04-12.93-.04-20.76,1.72,1.54,2.65,2.04,3.08,2.82,2.92,5.25,5.5,10.7,8.68,15.78,1.71,2.73,4.01,5.68,6.78,7,2.44,1.17,5.91,.22,8.92,.2-.13-1.88,.39-4.17-.5-5.55Zm-23.19-30.01c-1.21,.03-3.33-2.2-3.56-3.64-.54-3.35-.17-6.84-.17-10.17,10.93-1.8,15.5-1.82,12.71,11.79-3.04,.75-5.99,1.94-8.98,2.02Z"/><path class="cls-2" d="M487.39,319.82c-1.76-5.04-3.95-9.91-5.9-14.89-3.95-10.1-7.73-20.27-11.81-30.33-1.56-3.84-2.89-8.48-5.85-10.89-5.77-4.7-13.17-1.51-16.36,6.37-5.17,12.75-10.15,25.57-15.14,38.4-1.41,3.62-2.55,7.34-4.11,11.85,.78,1.02,1.81,3.35,2.69,3.3,2.41-.14,5.49-.61,6.94-2.2,2.13-2.32,3.16-5.69,4.49-8.69,1.11-2.5,2.59-3.73,5.6-3.62,6.48,.26,12.98,.14,19.47,0,3.03-.07,5.04,.88,6.14,3.87,1.07,2.92,1.8,6.5,3.93,8.36,1.94,1.69,5.54,1.61,8.45,1.9,.4,.04,1.78-2.51,1.46-3.43Zm-36.82-20.56c-.74-.03-2.21-2.03-1.99-2.52,2.73-6.2,5.7-12.3,8.68-18.39,.13-.27,.9-.23,2.03-.49,2.94,7.1,5.77,13.93,8.9,21.52-6.41,0-12.02,.09-17.62-.12Z"/><path class="cls-2" d="M1430.82,318.99c-4.78-7.31-9.5-14.66-14.65-22.64,1.59-.99,3.01-2.08,4.59-2.83,6.93-3.28,9.44-9.38,9.08-16.28-.37-7.09-5.06-12.2-11.76-13.74-7.42-1.71-15.19-1.85-23.81-2.78-.5,7.13-1.17,12.97-1.26,18.82-.18,11.65-.04,23.31-.01,34.97,0,1.49-.14,3.05,.22,4.47,.85,3.33,2.62,5.49,6.63,4.91,3.64-.53,4.57-2.69,4.53-5.93-.07-5.32-.07-10.65,.03-15.98,.02-1.44,.5-2.88,.96-5.34,1.35,1.53,1.95,2.03,2.31,2.66,4.02,6.88,7.89,13.85,12.04,20.65,1.96,3.22,5.07,4.89,8.94,3.78,2.28-.65,3.99-1.93,2.16-4.74Zm-26.11-31.99v-15.21c5.07-1.14,9.69-.46,12.02,3.34,1.4,2.28,1.32,7.94-.23,9.03-2.94,2.08-7.43,1.95-11.79,2.84Z"/><path class="cls-2" d="M48,280.04c-4.12-10.14-14.18-17.47-25.71-16.85-3.82,.2-7.66,.21-11.47-.02-3.73-.22-5.01,1.32-4.95,4.94,.15,8.14,.05,16.29,.05,24.44,0,6.32,0,12.64,0,18.96,.02,12.41,.03,12.49,12.3,12.25,8-.16,15.68-1.42,21.98-7.12,10.17-9.22,12.79-24.28,7.79-36.6Zm-20.54,33c-3.24,1.43-7.27,1.07-11.51,1.61v-40.94c10.97-2.41,18.11,.64,22.04,9.24,5.03,11.01,.27,25.32-10.53,30.09Z"/><path class="cls-2" d="M968.62,298.24v15.87h20.82c.18,2.42,.08,4.09,.46,5.65,.75,3.05-.81,4.03-3.38,4.05-7.83,.07-15.67,.27-23.48-.15-1.55-.08-4.09-2.61-4.24-4.19-.93-9.67-1.43-19.38-1.82-29.09-.24-5.99,.27-12.01-.11-17.99-.72-11.38,4.78-11.27,12.43-10.77,6.21,.41,12.4,1.06,18.6,1.61,.97,.09,1.93,.22,2.8,.32,1.28,6.55,.34,7.76-5.88,7.79-5.29,.03-10.58,0-16.16,0v16.37h18.32c2.59,7.7,1.04,9.93-6.33,9.96-3.5,.01-7,.05-10.49,.1-.32,0-.63,.18-1.53,.46Z"/><path class="cls-2" d="M1142.43,263.93c.6,6.51-.13,7.38-6.09,7.42-3.83,.02-7.66,.05-11.48,0-3.56-.06-5.18,1.66-5.12,5.16,.05,2.97,0,5.95,0,9.03,6.5,.9,12.62,1.74,19.74,2.73v9.5h-19.29v16.46c5.12,0,10.07,.07,15.03-.02,3.44-.06,5.92,.78,5.91,4.87-.01,4.1-2.59,4.9-5.97,4.87-6.49-.06-12.98-.16-19.47-.05-4.31,.08-5.82-1.87-5.79-6.07,.13-16.64,.21-33.28-.06-49.92-.07-4.54,2.52-5.56,5.82-6.28,1.43-.31,3-.2,4.48-.05,7.32,.73,14.62,1.53,22.28,2.34Z"/><path class="cls-2" d="M1353.06,263.13v8.25h-20.76v14.92c5.68,.6,11.26,.97,16.73,1.96,1.1,.2,2.87,3.36,2.46,4.05-1.23,2.07-3.16,4.7-5.21,5.11-3.82,.75-8.04,.64-11.88-.16-3.34-.7-3.91,.78-4,3.13-.16,4.31-.05,8.63-.05,13.76h20.69c1.44,8.58,.48,9.78-7.03,9.81-5.49,.02-10.99,.02-16.48,0-6.34-.03-6.95-.62-6.96-6.81-.02-16.14-.01-32.29,0-48.43,0-5.43,1.48-7.21,6.95-7.05,8.35,.24,16.69,.95,25.53,1.49Z"/><path class="cls-2" d="M1040.56,307.94c-.29,5.7,3.65,7.14,7.59,7.76,3.81,.6,8.27-3.57,8.54-8.9,.12-2.43-2.56-5.77-4.88-7.4-4.78-3.35-10.26-5.67-15.29-8.69-4.44-2.67-6.21-12.38-3.49-18.71,3.8-8.88,15.9-14.21,25.35-6.81,1.7,1.33,3.79,2.82,4.4,4.67,.56,1.69-.03,4.9-1.26,5.71-1.22,.81-4.55,.15-5.75-1.07-3.74-3.79-10.34-5.04-13.83,1.32-2.06,3.76,.87,8.77,5.69,10.45,3.46,1.21,6.96,2.58,10.06,4.5,8.96,5.54,11.1,11.79,7.86,21.58-2.92,8.82-13.28,14.49-21.87,11.14-4.05-1.58-7.6-4.79-10.86-7.82-1.23-1.14-1.99-4.58-1.2-5.66,1.08-1.45,3.84-1.73,5.93-2.33,.73-.21,1.61,.11,3.01,.25Z"/><path class="cls-2" d="M380.96,272.98c0,10.37,0,19.99,0,29.6,0,5.32-.09,10.64,.02,15.96,.07,3.64-1.65,5.14-5.14,5.07-3.32-.07-4.71-1.72-4.69-5.02,.06-13.13,.02-26.27,.01-39.4,0-1.81,0-3.61,0-5.27-4.06-.89-7.74-1.5-11.27-2.57-1.33-.4-3.47-2.21-3.29-2.79,.69-2.26,.81-5.38,4.54-5.34,8.31,.08,16.62,.02,24.94,.01,2.97,0,5.94,0,8.71,0,2.53,6.07,.97,9.41-6.55,9.75-2.26,.1-4.53,.02-7.28,.02Z"/><path class="cls-2" d="M542.22,314.23c4.99,0,9.29,.2,13.56-.07,2.94-.18,5.48,.88,5.24,3.55-.18,2.06-2.55,5.46-4.17,5.59-7.26,.59-14.64,.69-21.86-.13-1.65-.19-3.94-4.71-4-7.28-.37-15.95-.19-31.91-.2-47.87,0-4.07,2.5-4.85,5.94-4.85,3.7,0,5.53,1.46,5.52,5.31-.06,12.97-.02,25.93-.02,38.9,0,1.98,0,3.96,0,6.84Z"/><path class="cls-2" d="M1261.53,314.23c4.92,0,9.38,.07,13.83-.02,3.29-.06,5.5,.9,5.62,4.65,.12,4.03-2.19,5.15-5.7,5.12-5.33-.05-10.65-.02-15.98-.04-8.01-.03-9.69-1.53-9.45-9.85,.3-10.2,1.26-20.38,1.49-30.58,.09-4.18-1.1-8.37-1.49-12.58-.13-1.41,0-3.16,.74-4.25,1.08-1.58,2.84-3.81,4.29-3.8,3.52,.03,6.55,1.13,6.45,6.1-.29,13.64-.1,27.3-.09,40.95,0,1.15,.15,2.3,.28,4.3Z"/><path class="cls-2" d="M1548.98,48.16c2.53-7.03,4.68-13.47,7.22-19.75,.81-2,2.31-4.16,4.11-5.2,2.87-1.67,5.37-.53,5.53,3.09,.44,10.13,.77,20.27,.84,30.41,0,1.26-1.79,2.53-2.74,3.8-1.04-1.4-2.9-2.75-2.97-4.2-.33-6.38-.14-12.79-.14-19.18l-1.74-.39c-2.74,6.98-5.38,14-8.32,20.89-.55,1.29-2.33,2.05-3.54,3.05-.96-1.26-2.28-2.38-2.82-3.79-2.33-6.13-4.44-12.35-6.62-18.54l-1.75,.28c0,5.01,0,10.01,0,15.02,0,1.5,.38,3.21-.22,4.43-.59,1.2-2.12,2.4-3.41,2.62-.76,.13-2.65-1.63-2.67-2.56-.19-11.15-.18-22.3,0-33.44,.02-.98,2.06-2.89,2.41-2.73,1.79,.82,4.04,1.82,4.85,3.41,3.25,6.38,6,13.01,9.04,19.51,.46,.98,1.49,1.69,2.95,3.29Z"/><path class="cls-2" d="M1213,314.22c1.13,8.83,.45,9.64-7.42,9.67-4.66,.02-9.32,.06-13.98-.02-6.29-.11-7.6-1.43-7.6-7.52,0-15.15,0-30.3,0-45.45,0-8.53,.35-8.8,9.79-6.97,0,3.14,0,6.42,0,9.7,0,11.65,.07,23.31-.03,34.96-.04,4.03,1.66,5.77,5.68,5.65,4.47-.14,8.94-.03,13.57-.03Z"/><path class="cls-2" d="M302.07,292.36c0-7.83,.29-15.67-.12-23.47-.21-4.06,1.26-6.86,4.86-6.98,3.72-.13,5.99,3.04,6.59,6.69,.4,2.43,.11,4.98,.11,7.48,0,12.49,.07,24.98-.07,37.47-.02,2.2-1.15,4.36-1.38,6.58-.41,3.87-3.24,4.4-5.7,3.36-1.78-.75-3.86-3.32-3.95-5.16-.41-8.64-.18-17.31-.18-25.97h-.16Z"/><path class="cls-2" d="M157.19,263.96c0,3.29,0,6.74,0,10.19,0,14.33-.07,28.66,.04,42.99,.03,4.08-.81,6.75-5.69,6.77-4.73,.02-5.89-2.28-5.84-6.55,.15-14.99,.12-29.99,.04-44.99-.05-9.36,3.19-10.37,11.46-8.41Z"/><path class="cls-2" d="M101.24,293.16c0,8.32-.06,16.65,.03,24.97,.04,3.28-.82,5.44-4.53,5.8-3.7,.36-6.3-1.5-6.33-4.75-.08-9.19,.7-18.39,.8-27.59,.06-6.23-.76-12.48-.61-18.7,.08-3.37,1.12-6.8,2.3-9.99,.28-.77,3.29-1.42,4.27-.84,1.68,1,3.82,2.97,3.89,4.62,.38,8.81,.18,17.64,.18,26.47Z"/><path class="cls-2" d="M1517.19,26.18c-3.32,8.09,3.69,18.13-6.91,24.17V26.74c-2.6-.34-4.6-.35-6.4-.95-1.02-.34-1.71-1.65-2.56-2.53,.87-.59,1.72-1.68,2.6-1.7,6.99-.15,13.99-.2,20.97,.02,.95,.03,1.84,1.71,2.76,2.63-.95,.65-1.85,1.76-2.86,1.87-2.6,.27-5.25,.09-7.61,.09Z"/></g><path class="cls-2" d="M771.31,159.6c-.15-1.2-.2-1.89-.2-1.89,.04,.63,.11,1.26,.2,1.89Z"/></svg>